<svg xmlns="http://www.w3.org/2000/svg" viewBox="0 0 600 600" role="img" aria-labelledby="title desc">
  <title id="title">纸房子胶片收藏卡占位商品图</title><desc id="desc">谷多多原创的胶片收藏卡示意图，不含竞品标识</desc>
  <defs><linearGradient id="bg" x1="0" y1="0" x2="1" y2="1"><stop stop-color="#fff4d8"/><stop offset="1" stop-color="#ffd9d0"/></linearGradient><linearGradient id="film" x1="0" y1="0" x2="0" y2="1"><stop stop-color="#ff735d"/><stop offset="1" stop-color="#b92838"/></linearGradient></defs>
  <rect width="600" height="600" rx="64" fill="url(#bg)"/><path d="M74 107h452v300H74z" fill="#171f4d" rx="18"/><g fill="#fff4d8"><circle cx="99" cy="133" r="8"/><circle cx="139" cy="133" r="8"/><circle cx="179" cy="133" r="8"/><circle cx="219" cy="133" r="8"/><circle cx="259" cy="133" r="8"/><circle cx="299" cy="133" r="8"/><circle cx="339" cy="133" r="8"/><circle cx="379" cy="133" r="8"/><circle cx="419" cy="133" r="8"/><circle cx="459" cy="133" r="8"/><circle cx="499" cy="133" r="8"/></g>
  <g transform="rotate(-7 300 280)"><rect x="125" y="167" width="165" height="218" rx="20" fill="#fff" stroke="#171f4d" stroke-width="7"/><rect x="151" y="193" width="113" height="129" rx="12" fill="url(#film)"/><path d="m181 284 36-58 31 58Z" fill="#f2b22e"/><rect x="311" y="167" width="165" height="218" rx="20" fill="#fff" stroke="#171f4d" stroke-width="7"/><rect x="337" y="193" width="113" height="129" rx="12" fill="#f2b22e"/><path d="m361 300 41-78 29 78Z" fill="#171f4d"/></g>
  <rect x="129" y="449" width="342" height="60" rx="30" fill="#171f4d"/><text x="300" y="488" fill="#fff" font-family="Noto Sans SC, sans-serif" font-size="25" font-weight="700" text-anchor="middle">纸房子 · 胶片收藏卡</text>
</svg>
